# xmcd
#
# Track frame offsets:
#	150
#	11632
#	22839
#	34201
#	46414
#	58045
#	70911
#	80995
#	93294
#	104660
#	116230
#	128225
#	137287
#	148665
#	160193
#	169115
#	179474
#	191533
#	200683
#	210566
#	222087
#	235340
#	247631
#	256682
#	268973
#	281996
#
# Disc length: 3913 seconds
#
# Revision: 0
# Processed by: cddbd v1.5.2PL0 Copyright (c) Steve Scherf et al.
# Submitted via: dBpowerAMP V4.0
#
DISCID=830f471a
DTITLE=Cookies - The Absolute Complete! (And Oh So Sweet!)
DYEAR=1900
DGENRE=R&B
TTITLE0=In Paradise
TTITLE1=Chains
TTITLE2=King Of Hearts
TTITLE3=Don't Say Nothing Bad About My Baby
TTITLE4=Down The River
TTITLE5=I'm Into Something Good
TTITLE6=All Night Mambo
TTITLE7=Girls Grow Up Faster Than Boys
TTITLE8=Don't Let Go
TTITLE9=I Never Dreamed
TTITLE10=I Want A Boy For My Birthday
TTITLE11=Hippy Dippy Daddy
TTITLE12=Will Power
TTITLE13=Stranger In My Arm
TTITLE14=On Broadway
TTITLE15=Foolish Little Girl
TTITLE16=The Old Crowd
TTITLE17=My Lover
TTITLE18=Randy
TTITLE19=Only To Other People
TTITLE20=Precious Love
TTITLE21=Passing Time
TTITLE22=Softly In The Night
TTITLE23=Later Later
TTITLE24=They're Jealous Of Me
TTITLE25=We Love And Learn
EXTD=
EXTT0=
EXTT1=
EXTT2=
EXTT3=
EXTT4=
EXTT5=
EXTT6=
EXTT7=
EXTT8=
EXTT9=
EXTT10=
EXTT11=
EXTT12=
EXTT13=
EXTT14=
EXTT15=
EXTT16=
EXTT17=
EXTT18=
EXTT19=
EXTT20=
EXTT21=
EXTT22=
EXTT23=
EXTT24=
EXTT25=
PLAYORDER=
